<svg width="285" height="176" viewBox="0 0 285 176" fill="none" xmlns="http://www.w3.org/2000/svg">
<path d="M279.7 151.2H5.40009C2.50009 151.2 0.100098 148.8 0.100098 145.9V118.3C0.100098 115.4 2.50009 113 5.40009 113H279.7C282.6 113 285 115.4 285 118.3V145.9C285 148.8 282.6 151.2 279.7 151.2ZM10.7001 140.6H274.5V123.5H10.7001V140.6Z" fill="#282F39"/>
<path d="M39.4999 175.2H20.6999C17.7999 175.2 15.3999 172.8 15.3999 169.9V145.9C15.3999 143 17.7999 140.6 20.6999 140.6H39.4999C42.3999 140.6 44.7999 143 44.7999 145.9V169.9C44.6999 172.8 42.3999 175.2 39.4999 175.2ZM25.8999 164.6H34.1999V151.1H25.8999V164.6Z" fill="#282F39"/>
<path d="M264.4 175.2H245.6C242.7 175.2 240.3 172.8 240.3 169.9V145.9C240.3 143 242.7 140.6 245.6 140.6H264.4C267.3 140.6 269.7 143 269.7 145.9V169.9C269.7 172.8 267.3 175.2 264.4 175.2ZM250.9 164.6H259.2V151.1H250.9V164.6Z" fill="#282F39"/>
<path d="M264.4 100.7H20.6999C17.7999 100.7 15.3999 98.3 15.3999 95.4V5.29999C15.3999 2.39999 17.7999 0 20.6999 0H264.5C267.4 0 269.8 2.39999 269.8 5.29999V95.4C269.7 98.3 267.3 100.7 264.4 100.7ZM25.8999 90.1H259.1V10.5H25.8999V90.1Z" fill="#282F39"/>
<path d="M131.9 100.7H43.8C40.9 100.7 38.5 98.3 38.5 95.4V50.3C38.5 47.4 40.9 45 43.8 45H131.9C134.8 45 137.2 47.4 137.2 50.3V95.4C137.2 98.3 134.9 100.7 131.9 100.7ZM49.1 90.1H126.7V55.6H49.1V90.1Z" fill="#282F39"/>
<path d="M241.3 100.7H153.2C150.3 100.7 147.9 98.3 147.9 95.4V50.3C147.9 47.4 150.3 45 153.2 45H241.3C244.2 45 246.6 47.4 246.6 50.3V95.4C246.5 98.3 244.2 100.7 241.3 100.7ZM158.4 90.1H236V55.6H158.4V90.1Z" fill="#282F39"/>
<path d="M279.7 123.5H5.40009C2.50009 123.5 0.100098 121.1 0.100098 118.2V109.2C0.100098 98.7 8.7001 90.1 19.2001 90.1H265.9C276.4 90.1 285 98.7 285 109.2V118.2C285 121.1 282.6 123.5 279.7 123.5ZM10.7001 113H274.5V109.3C274.5 104.6 270.7 100.7 265.9 100.7H19.2001C14.5001 100.7 10.6001 104.5 10.6001 109.3V113H10.7001Z" fill="#282F39"/>
</svg>
