<svg width="203" height="238" viewBox="0 0 203 238" fill="none" xmlns="http://www.w3.org/2000/svg">
<path d="M197.5 237.2H5.40009C2.50009 237.2 0.100098 234.8 0.100098 231.9V6C0.100098 3.1 2.50009 0.699997 5.40009 0.699997H197.5C200.4 0.699997 202.8 3.1 202.8 6V232C202.8 234.9 200.4 237.2 197.5 237.2ZM10.7001 226.7H192.3V11.3H10.7001V226.7Z" fill="#282F39"/>
<path d="M106.7 6H96.2002V193.4H106.7V6Z" fill="#282F39"/>
<path d="M197.5 188.1H5.3999V198.6H197.5V188.1Z" fill="#282F39"/>
<path d="M83.8999 87.5H73.3999V105.5H83.8999V87.5Z" fill="#282F39"/>
<path d="M129.4 87.5H118.9V105.5H129.4V87.5Z" fill="#282F39"/>
<path d="M110.4 206.9H92.3999V217.4H110.4V206.9Z" fill="#282F39"/>
</svg>
