<svg width="221" height="193" viewBox="0 0 221 193" fill="none" xmlns="http://www.w3.org/2000/svg">
<path d="M36.5998 192.2H16.1998C7.69983 192.2 0.799805 185.3 0.799805 176.8V74.4C0.799805 65.9 7.69983 59 16.1998 59H36.5998C45.0998 59 51.9998 65.9 51.9998 74.4V176.8C51.9998 185.3 45.0998 192.2 36.5998 192.2ZM16.1998 69.5C13.4998 69.5 11.2998 71.7 11.2998 74.4V176.8C11.2998 179.5 13.4998 181.7 16.1998 181.7H36.5998C39.2998 181.7 41.4998 179.5 41.4998 176.8V74.4C41.4998 71.7 39.2998 69.5 36.5998 69.5H16.1998Z" fill="#282F39"/>
<path d="M205.6 192.2H185.2C176.7 192.2 169.8 185.3 169.8 176.8V74.4C169.8 65.9 176.7 59 185.2 59H205.6C214.1 59 221 65.9 221 74.4V176.8C221.1 185.3 214.1 192.2 205.6 192.2ZM185.3 69.5C182.6 69.5 180.4 71.7 180.4 74.4V176.8C180.4 179.5 182.6 181.7 185.3 181.7H205.7C208.4 181.7 210.6 179.5 210.6 176.8V74.4C210.6 71.7 208.4 69.5 205.7 69.5H185.3Z" fill="#282F39"/>
<path d="M175.1 171.2H46.8C43.9 171.2 41.5 168.8 41.5 165.9V141.1C41.5 138.2 43.9 135.8 46.8 135.8H175.1C178 135.8 180.4 138.2 180.4 141.1V165.9C180.4 168.8 178 171.2 175.1 171.2ZM52 160.6H169.8V146.4H52V160.6Z" fill="#282F39"/>
<path d="M175.1 146.4H46.8C43.9 146.4 41.5 144 41.5 141.1V95.8C41.5 92.9 43.9 90.5 46.8 90.5H175.1C178 90.5 180.4 92.9 180.4 95.8V141.1C180.4 144 178 146.4 175.1 146.4ZM52 135.9H169.8V101.2H52V135.9Z" fill="#282F39"/>
<path d="M175.1 101.1H46.8C43.9 101.1 41.5 98.7 41.5 95.8V21C41.5 9.5 50.9 0.0999756 62.4 0.0999756H159.4C170.9 0.0999756 180.3 9.5 180.3 21V95.9C180.4 98.8 178 101.1 175.1 101.1ZM52 90.6H169.8V21C169.8 15.3 165.1 10.6 159.4 10.6H62.4C56.7 10.6 52 15.3 52 21V90.6Z" fill="#282F39"/>
<path d="M117.2 66C115.9 66 114.5 65.5 113.5 64.5L100.9 51.9C98.7997 49.8 98.7997 46.5 100.9 44.4C103 42.3 106.3 42.3 108.4 44.4L121 57C123.1 59.1 123.1 62.4 121 64.5C119.9 65.4 118.6 66 117.2 66Z" fill="#282F39"/>
<path d="M104.6 66C103.3 66 101.9 65.5 100.9 64.5C98.7997 62.4 98.7997 59.1 100.9 57L113.5 44.4C115.6 42.3 118.9 42.3 121 44.4C123.1 46.5 123.1 49.8 121 51.9L108.4 64.5C107.3 65.4 106 66 104.6 66Z" fill="#282F39"/>
</svg>
