<svg width="312" height="186" viewBox="0 0 312 186" fill="none" xmlns="http://www.w3.org/2000/svg">
<path d="M35.8 185.2H15.4C6.90002 185.2 0 178.3 0 169.8V67.4C0 58.9 6.90002 52 15.4 52H35.8C44.3 52 51.2 58.9 51.2 67.4V169.8C51.2 178.3 44.3 185.2 35.8 185.2ZM15.4 62.5C12.7 62.5 10.5 64.7 10.5 67.4V169.8C10.5 172.5 12.7 174.7 15.4 174.7H35.8C38.5 174.7 40.7 172.5 40.7 169.8V67.4C40.7 64.7 38.5 62.5 35.8 62.5H15.4Z" fill="#282F39"/>
<path d="M296.4 185.2H276C267.5 185.2 260.6 178.3 260.6 169.8V67.4C260.6 58.9 267.5 52 276 52H296.4C304.9 52 311.8 58.9 311.8 67.4V169.8C311.9 178.3 304.9 185.2 296.4 185.2ZM276.1 62.5C273.4 62.5 271.2 64.7 271.2 67.4V169.8C271.2 172.5 273.4 174.7 276.1 174.7H296.5C299.2 174.7 301.4 172.5 301.4 169.8V67.4C301.4 64.7 299.2 62.5 296.5 62.5H276.1Z" fill="#282F39"/>
<path d="M265.9 164.2H45.9001C43.0001 164.2 40.6001 161.8 40.6001 158.9V134.1C40.6001 131.2 43.0001 128.8 45.9001 128.8H265.9C268.8 128.8 271.2 131.2 271.2 134.1V159C271.2 161.9 268.8 164.2 265.9 164.2ZM51.2001 153.7H260.6V139.5H51.2001V153.7Z" fill="#282F39"/>
<path d="M155.9 139.5H45.9001C43.0001 139.5 40.6001 137.1 40.6001 134.2V88.9C40.6001 86 43.0001 83.6 45.9001 83.6H155.9C158.8 83.6 161.2 86 161.2 88.9V134.2C161.2 137.1 158.8 139.5 155.9 139.5ZM51.2001 128.9H150.6V94.2H51.2001V128.9Z" fill="#282F39"/>
<path d="M265.9 139.5H155.9C153 139.5 150.6 137.1 150.6 134.2V88.9C150.6 86 153 83.6 155.9 83.6H265.9C268.8 83.6 271.2 86 271.2 88.9V134.2C271.2 137.1 268.8 139.5 265.9 139.5ZM161.2 128.9H260.6V94.2H161.2V128.9Z" fill="#282F39"/>
<path d="M155.9 94.2H45.9001C43.0001 94.2 40.6001 91.8 40.6001 88.9V5.89999C40.6001 2.99999 43.0001 0.600006 45.9001 0.600006H155.9C158.8 0.600006 161.2 2.99999 161.2 5.89999V88.9C161.2 91.9 158.8 94.2 155.9 94.2ZM51.2001 83.7H150.6V11.3H51.2001V83.7Z" fill="#282F39"/>
<path d="M107.2 59C105.9 59 104.5 58.5 103.5 57.5L90.9002 44.9C88.8002 42.8 88.8002 39.5 90.9002 37.4C93.0002 35.3 96.3002 35.3 98.4002 37.4L111 50C113.1 52.1 113.1 55.4 111 57.5C109.9 58.5 108.6 59 107.2 59Z" fill="#282F39"/>
<path d="M94.6001 59C93.3001 59 91.9002 58.5 90.9002 57.5C88.8002 55.4 88.8002 52.1 90.9002 50L103.5 37.4C105.6 35.3 108.9 35.3 111 37.4C113.1 39.5 113.1 42.8 111 44.9L98.4002 57.5C97.3002 58.5 96.0001 59 94.6001 59Z" fill="#282F39"/>
<path d="M265.9 94.2H155.9C153 94.2 150.6 91.8 150.6 88.9V5.89999C150.6 2.99999 153 0.600006 155.9 0.600006H265.9C268.8 0.600006 271.2 2.99999 271.2 5.89999V88.9C271.2 91.9 268.8 94.2 265.9 94.2ZM161.2 83.7H260.6V11.3H161.2V83.7Z" fill="#282F39"/>
<path d="M217.2 59C215.9 59 214.5 58.5 213.5 57.5L200.9 44.9C198.8 42.8 198.8 39.5 200.9 37.4C203 35.3 206.3 35.3 208.4 37.4L221 50C223.1 52.1 223.1 55.4 221 57.5C219.9 58.5 218.5 59 217.2 59Z" fill="#282F39"/>
<path d="M204.6 59C203.3 59 201.9 58.5 200.9 57.5C198.8 55.4 198.8 52.1 200.9 50L213.5 37.4C215.6 35.3 218.9 35.3 221 37.4C223.1 39.5 223.1 42.8 221 44.9L208.4 57.5C207.3 58.5 206 59 204.6 59Z" fill="#282F39"/>
</svg>
