<svg width="264" height="190" viewBox="0 0 264 190" fill="none" xmlns="http://www.w3.org/2000/svg">
<path d="M257.8 26.6H5.29999C2.39999 26.6 0 24.2 0 21.3V5.39999C0 2.49999 2.39999 0.100006 5.29999 0.100006H257.8C260.7 0.100006 263.1 2.49999 263.1 5.39999V21.3C263.1 24.2 260.7 26.6 257.8 26.6ZM10.5 16.1H252.5V10.8H10.5V16.1Z" fill="#282F39"/>
<path d="M206.4 39H190.9V49.5H206.4V39Z" fill="#282F39"/>
<path d="M206.4 83.7H190.9V94.2H206.4V83.7Z" fill="#282F39"/>
<path d="M25.4001 189.2H8.90015C6.00015 189.2 3.6001 186.8 3.6001 183.9V21.3C3.6001 18.4 6.00015 16 8.90015 16H25.4001C28.3001 16 30.7001 18.4 30.7001 21.3V184C30.7001 186.9 28.4001 189.2 25.4001 189.2ZM14.2001 178.7H20.2001V26.6H14.2001V178.7Z" fill="#282F39"/>
<path d="M254.1 189.2H237.6C234.7 189.2 232.3 186.8 232.3 183.9V21.3C232.3 18.4 234.7 16 237.6 16H254.1C257 16 259.4 18.4 259.4 21.3V184C259.4 186.9 257 189.2 254.1 189.2ZM242.9 178.7H248.9V26.6H242.9V178.7Z" fill="#282F39"/>
<path d="M237.6 71.7H159.7C156.8 71.7 154.4 69.3 154.4 66.4V21.3H165V61.1H237.7V71.7H237.6Z" fill="#282F39"/>
<path d="M237.6 116.7H159.7C156.8 116.7 154.4 114.3 154.4 111.4V66.3H165V106.1H237.7V116.7H237.6Z" fill="#282F39"/>
<path d="M164.9 66.4H154.4V111.5H164.9V66.4Z" fill="#282F39"/>
</svg>
